<svg xmlns="http://www.w3.org/2000/svg" width="1920" height="960" viewBox="0 0 1920 960" fill="none">
<path d="M1182.44 -236.12C1448.89 -234.183 1728.72 -166.781 1933.02 -115.392L2072.3 248.686C2076.76 405.904 1983.17 744.622 1573.1 841.751C1060.52 963.162 1041.83 819.984 701.117 647.09C428.547 508.775 -28.9583 448.389 -223.64 435.485C-215.043 318.107 -286.355 -84.0175 40.4224 -82.4927C725.36 -79.2965 849.848 -238.538 1182.44 -236.12Z" fill="#F6FAFD"/>
<path fill-rule="evenodd" clip-rule="evenodd" d="M1143.99 787.743L1143.8 786.992C1143 783.88 1141.76 780.965 1140.13 778.298L1139.72 777.628L1143.46 773.88L1143.46 773.88C1144.13 773.209 1144.5 772.317 1144.5 771.363C1144.5 770.412 1144.13 769.517 1143.46 768.847L1138.16 763.546L1138.16 763.546C1136.82 762.213 1134.45 762.216 1133.13 763.543L1133.13 763.546L1129.26 767.386L1128.6 767C1125.96 765.46 1123.13 764.277 1120.02 763.516L1119.26 763.329V757.805C1119.26 755.827 1117.68 754.225 1115.73 754.225H1108.23C1106.3 754.225 1104.74 755.818 1104.74 757.805V763.328L1103.98 763.514C1100.87 764.273 1098.02 765.459 1095.38 767L1094.72 767.386L1090.85 763.543C1089.52 762.213 1087.15 762.212 1085.81 763.543L1080.51 768.844C1079.85 769.504 1079.47 770.424 1079.47 771.359C1079.47 772.311 1079.83 773.201 1080.51 773.872L1080.51 773.874L1084.24 777.628L1083.84 778.298C1082.21 780.965 1080.97 783.88 1080.17 786.991L1079.98 787.743H1074.77C1072.8 787.743 1071.22 789.32 1071.22 791.272V798.769C1071.22 800.717 1072.79 802.26 1074.77 802.26H1079.98L1080.17 803.012C1080.97 806.125 1082.21 809.058 1083.83 811.724L1084.24 812.393L1080.5 816.156C1079.83 816.826 1079.46 817.721 1079.46 818.676C1079.46 819.629 1079.83 820.525 1080.5 821.196L1085.81 826.501C1086.48 827.173 1087.37 827.541 1088.32 827.541C1089.27 827.541 1090.16 827.172 1090.84 826.5L1090.84 826.498L1094.72 822.658L1095.38 823.044C1098.02 824.585 1100.87 825.769 1103.98 826.532L1104.74 826.718V832.235C1104.74 834.211 1106.29 835.775 1108.23 835.775H1115.73C1117.69 835.775 1119.26 834.202 1119.26 832.235V826.716L1120.02 826.53C1123.13 825.769 1125.96 824.585 1128.6 823.044L1129.27 822.656L1133.12 826.495C1133.79 827.169 1134.68 827.537 1135.63 827.537C1136.59 827.537 1137.48 827.167 1138.15 826.497L1143.46 821.196C1144.13 820.528 1144.5 819.637 1144.5 818.682C1144.5 817.731 1144.13 816.841 1143.46 816.166L1143.45 816.164L1139.72 812.392L1140.13 811.724C1141.75 809.056 1143 806.121 1143.8 803.011L1143.99 802.26H1149.2C1151.18 802.26 1152.78 800.707 1152.78 798.769V791.272C1152.78 789.331 1151.17 787.743 1149.2 787.743H1143.99ZM1085.1 827.208L1079.8 821.903C1078.94 821.044 1078.46 819.893 1078.46 818.676C1078.46 817.458 1078.93 816.307 1079.8 815.448L1082.98 812.244C1081.31 809.494 1080.02 806.47 1079.2 803.26H1074.77C1072.25 803.26 1070.22 801.285 1070.22 798.769V791.272C1070.22 788.764 1072.25 786.743 1074.77 786.743H1079.2C1080.02 783.534 1081.31 780.528 1082.98 777.778L1079.8 774.579C1078.94 773.72 1078.47 772.575 1078.47 771.359C1078.47 770.159 1078.95 768.985 1079.8 768.137L1085.11 762.835C1086.83 761.116 1089.84 761.114 1091.56 762.837L1094.88 766.136C1097.6 764.549 1100.53 763.326 1103.74 762.543V757.805C1103.74 755.291 1105.72 753.225 1108.23 753.225H1115.73C1118.25 753.225 1120.26 755.291 1120.26 757.805V762.544C1123.47 763.329 1126.38 764.551 1129.1 766.136L1132.42 762.837C1134.13 761.118 1137.14 761.116 1138.86 762.839L1144.17 768.14C1145.03 768.998 1145.5 770.147 1145.5 771.363C1145.5 772.58 1145.03 773.727 1144.17 774.587L1140.99 777.778C1142.66 780.528 1143.95 783.534 1144.77 786.743H1149.2C1151.71 786.743 1153.78 788.764 1153.78 791.272V798.769C1153.78 801.285 1151.71 803.26 1149.2 803.26H1144.76C1143.94 806.466 1142.66 809.492 1140.98 812.244L1144.16 815.461C1145.02 816.322 1145.5 817.465 1145.5 818.683C1145.5 819.899 1145.02 821.045 1144.16 821.903L1138.86 827.205C1138 828.063 1136.85 828.537 1135.63 828.537C1134.41 828.537 1133.27 828.064 1132.41 827.201L1129.11 823.908C1126.38 825.495 1123.47 826.716 1120.26 827.501V832.235C1120.26 834.749 1118.25 836.775 1115.73 836.775H1108.23C1105.72 836.775 1103.74 834.749 1103.74 832.235V827.503C1100.53 826.716 1097.6 825.495 1094.88 823.908L1091.54 827.208C1090.68 828.066 1089.54 828.541 1088.32 828.541C1087.11 828.541 1085.96 828.068 1085.1 827.208ZM1127.4 795.022C1127.39 803.464 1120.48 810.292 1111.98 810.292C1103.48 810.292 1096.57 803.462 1096.57 795.022C1096.57 786.576 1103.48 779.755 1111.98 779.755C1120.48 779.755 1127.4 786.576 1127.4 795.022ZM1097.57 795.022C1097.57 802.9 1104.03 809.292 1111.98 809.292C1119.94 809.292 1126.39 802.902 1126.4 795.022C1126.4 787.138 1119.94 780.755 1111.98 780.755C1104.03 780.755 1097.57 787.138 1097.57 795.022Z" fill="#D6E8F7"/>
<path d="M527.99 221.673H510.413C507.146 208.936 502.047 197.007 495.397 186.094L508.033 173.43C511.445 170.018 513.32 165.467 513.32 160.635C513.32 155.81 511.43 151.252 508.033 147.848L486.973 126.81C480.143 119.972 468.207 119.98 461.406 126.802L448.236 139.893C437.447 133.604 425.878 128.757 413.134 125.641V106.832C413.134 96.8571 405.165 88.6567 395.19 88.6567H365.418C355.443 88.6567 347.596 96.8571 347.596 106.832V125.634C334.86 128.743 323.219 133.596 312.415 139.893L299.253 126.802C292.43 119.965 280.486 119.972 273.642 126.795L252.597 147.833C249.221 151.201 247.296 155.861 247.296 160.621C247.296 165.446 249.163 169.989 252.582 173.401L265.218 186.094C258.575 197.007 253.469 208.936 250.209 221.673H232.626C222.644 221.673 214.588 229.693 214.588 239.646V269.396C214.588 279.378 222.644 287.218 232.626 287.218H250.209C253.469 299.954 258.568 311.956 265.204 322.868L252.568 335.583C249.149 338.994 247.274 343.56 247.274 348.392C247.274 353.224 249.156 357.79 252.568 361.201L273.627 382.254C277.046 385.665 281.583 387.54 286.408 387.54C291.233 387.54 295.776 385.658 299.195 382.254L312.415 369.156C323.219 375.452 334.86 380.299 347.596 383.422V402.203C347.596 412.177 355.443 420.219 365.418 420.219H395.19C405.165 420.219 413.134 412.177 413.134 402.203V383.415C425.878 380.299 437.447 375.452 448.251 369.156L461.356 382.225C464.774 385.651 469.318 387.526 474.157 387.526C478.99 387.526 483.54 385.643 486.952 382.239L508.012 361.201C511.423 357.797 513.291 353.246 513.305 348.421C513.305 343.589 511.416 339.052 508.012 335.634L495.39 322.868C502.025 311.948 507.125 299.94 510.392 287.218H527.975C537.95 287.218 546.15 279.378 546.15 269.396V239.646C546.157 229.693 537.964 221.673 527.99 221.673ZM380.297 311.155C348.722 311.155 323.118 285.79 323.118 254.524C323.118 223.238 348.722 197.908 380.297 197.908C411.879 197.908 437.497 223.238 437.497 254.524C437.49 285.797 411.879 311.155 380.297 311.155Z" fill="#EDF3F8"/>
</svg>